<svg width="165" height="181" viewBox="0 0 165 181" fill="none" xmlns="http://www.w3.org/2000/svg">
<path id="Vector 1" d="M9 65C-2.74266 65.6524 2.45828 56.4616 8.33333 50.4444C19.8794 38.6191 41.2732 27.7039 52.4444 46.1111C68.1371 71.9683 56.4738 111.243 47.6111 137.333C42.5126 152.342 34.9852 169.62 20.5 178.111C14.6973 181.513 11.9397 173.933 11.4444 169.444C10.0105 156.449 18.7035 141.749 26.3333 132C39.358 115.357 61.5486 105.696 81.3333 100.111C104.249 93.643 128.454 94.5961 152 94" stroke="black" stroke-width="3" stroke-linecap="round"/>
<path id="Vector 2" d="M73 82C72.5083 80.0331 69.2545 81.8362 68.3889 82.4444C64.3749 85.2651 61.4444 91.1889 61.4444 96.1111C61.4444 101.392 67.3652 95.5784 68.3889 94.3333C70.9831 91.1782 72.9707 87.4203 74.5556 83.6667C78.488 74.3529 69.0076 98.7132 74 98C80.6155 97.0549 83.9923 86.2332 86.3333 81.3333C88.942 75.8733 90.785 70.2431 91 64.2222C91.1563 59.8449 87.4054 73.2721 87 74.7778C85.7449 79.4397 82.7801 86.8912 86.8889 91C91.8356 95.9467 96.0125 88.9875 99 86" stroke="black" stroke-width="3" stroke-linecap="round"/>
<path id="Vector 3" d="M83 74H85" stroke="black" stroke-width="3" stroke-linecap="round"/>
<path id="Vector 4" d="M82 74C81.0213 74 75.4753 74.0852 79.2222 74C85.0421 73.8677 99.7394 71.8908 103 67" stroke="black" stroke-width="3" stroke-linecap="round"/>
<path id="Vector 5" d="M108 74C108 79.8648 104.143 85.8011 105 91.5556C105.711 96.3277 113.342 87.6301 114 85" stroke="black" stroke-width="3" stroke-linecap="round"/>
<path id="Vector 6" d="M114 76C112.381 73.1671 113.107 83.4762 112.889 85.1111C112.752 86.1384 110.808 96.4462 111 91.5556C111.24 85.4427 122.887 67.9953 121.944 82.6111C121.88 83.617 120.864 92.0065 121 89.5556C121.296 84.2285 124.038 78.9702 126.944 74.6111C129.342 71.0151 129.295 81.9117 129.222 82.5556C128.676 87.4033 126.458 94.673 133 90" stroke="black" stroke-width="3" stroke-linecap="round"/>
<path id="Vector 7" d="M142 79C144.402 75.998 141.933 74.7612 138.889 76.2222C135.708 77.7489 135.469 80.467 134 83.2222C133.445 84.2637 131.767 88.9667 131.889 90C132.29 93.4085 139.782 87.9932 140.444 86.8889C142.727 83.0838 146.939 71.3773 144.556 83.8889C143.916 87.244 141.65 96.0705 148.556 91.5556C151.737 89.4757 153.644 84.9454 156 82" stroke="black" stroke-width="3" stroke-linecap="round"/>
<path id="Vector 8" d="M111 66C113.021 64.2316 109.451 67.6394 109 68" stroke="black" stroke-width="3" stroke-linecap="round"/>
<path id="Vector 9" d="M75.1849 38.3734C75.5731 50.0194 80.0762 61.8404 82.9627 73.0401C86.6447 87.3264 90.4952 101.259 93.4072 115.707C93.7375 117.346 96.1373 129.532 98.1849 122.707C101.709 110.958 102.46 98.4666 105.629 86.5956C109.05 73.7833 113.246 61.2509 119.185 49.3734C120.26 47.223 124.28 38.2626 124.185 45.3734C124.012 58.3102 120.182 71.0971 119.407 84.0401C118.881 92.8338 117.05 108.072 123.185 115.485C128.308 121.675 133.022 103.189 133.629 101.151C138.313 85.4396 140.479 68.0548 141.074 51.7067C141.523 39.3483 141.666 22.7313 134.407 12.0956C127.395 1.8214 114.81 -0.40795 103.74 4.48452C85.5424 12.5279 72.8491 27.3935 61.6294 43.2623C50.2359 59.3769 40.8836 83.9676 51.9627 102.485C62.289 119.743 85.4264 125.99 104.296 127.151C105.677 127.236 131.254 127.422 130.907 128.985C130.107 132.587 118.605 135.745 115.685 137.485C110.586 140.522 99.7138 145.976 98.9072 152.429C96.4818 171.832 139.2 150.507 143.907 147.429C148.6 144.361 159.957 137.379 161.129 130.929C161.632 128.164 157.748 126.137 156.518 125.373C154.112 123.88 150.797 123.37 148.185 122.151C146.985 121.591 150.607 125.45 150.963 125.929C151.369 126.476 154.626 132.41 155.407 131.707C156.826 130.43 156.773 124.829 157.185 122.873C157.764 120.125 163.185 111.823 163.185 118.873C163.185 123.144 155.172 132.36 158.185 135.373" stroke="black" stroke-width="3" stroke-linecap="round"/>
</svg>
